<?xml version="1.0" standalone="no"?>
<!DOCTYPE svg PUBLIC "-//W3C//DTD SVG 20010904//EN"
 "http://www.w3.org/TR/2001/REC-SVG-20010904/DTD/svg10.dtd">
<svg version="1.0" xmlns="http://www.w3.org/2000/svg"
 width="225.000000pt" height="225.000000pt" viewBox="0 0 225.000000 225.000000"
 preserveAspectRatio="xMidYMid meet">

<g transform="translate(0.000000,225.000000) scale(0.100000,-0.100000)"
fill="#000000" stroke="none">
<path d="M1162 1753 c-149 -178 -270 -329 -267 -333 3 -5 40 -28 83 -51 109
-59 139 -84 152 -125 16 -47 1 -100 -39 -138 -45 -43 -88 -44 -215 -3 -60 20
-105 32 -100 27 5 -5 92 -79 194 -164 144 -120 188 -152 197 -143 34 35 723
862 723 868 0 3 -96 87 -212 184 -117 98 -220 184 -228 191 -13 11 -55 -35
-288 -313z m203 -132 c43 -19 100 -78 116 -118 14 -36 11 -120 -5 -151 -8 -15
-27 -39 -43 -54 -121 -114 -333 -11 -333 162 0 44 26 104 57 132 53 48 140 60
208 29z"/>
<path d="M1180 1540 c-8 -15 -8 -25 -1 -34 6 -6 8 -22 4 -34 -3 -13 2 -33 11
-47 19 -29 61 -33 107 -10 16 9 34 13 39 10 15 -9 -7 -44 -36 -57 -23 -11 -23
-12 -8 -30 21 -22 37 -23 54 -3 10 12 16 13 27 3 20 -16 53 16 35 34 -7 7 -12
29 -12 49 0 21 -7 45 -16 53 -19 20 -71 20 -104 1 -32 -18 -40 -18 -40 -1 0 8
12 23 28 35 26 19 26 21 9 38 -15 15 -20 16 -38 5 -15 -10 -24 -10 -34 -2 -11
9 -16 6 -25 -10z"/>
<path d="M575 1715 c-82 -25 -158 -45 -167 -45 -17 0 -18 -16 -18 -191 0 -177
1 -190 18 -185 136 39 141 39 167 22 15 -10 29 -24 32 -31 3 -8 20 -24 39 -35
46 -29 321 -120 361 -120 56 0 90 59 63 110 -5 10 -74 54 -154 99 -149 84
-167 102 -139 140 11 16 25 21 58 21 43 0 44 1 133 108 50 59 89 108 87 110
-8 9 -226 42 -274 42 -36 -1 -111 -17 -206 -45z"/>
<path d="M236 1483 c13 -131 23 -246 24 -255 0 -14 9 -18 35 -18 l35 0 0 255
0 255 -58 0 -58 0 22 -237z"/>
<path d="M713 774 c-40 -40 -28 -85 39 -143 29 -25 89 -79 133 -119 46 -42
109 -88 149 -107 l69 -35 201 0 c220 0 265 -7 307 -50 l28 -27 203 18 c112 11
208 20 215 21 8 2 -6 49 -41 135 -77 191 -127 263 -211 300 -34 15 -78 18
-287 21 l-247 4 -26 -26 c-30 -30 -32 -64 -5 -99 20 -26 25 -26 143 -29 114
-3 122 -4 122 -23 0 -19 -7 -20 -200 -20 l-200 0 -45 28 c-25 15 -94 61 -154
102 -122 84 -151 91 -193 49z"/>
<path d="M1875 254 c-126 -12 -238 -23 -247 -23 -14 -1 -18 -10 -18 -36 l0
-35 255 0 255 0 0 60 c0 33 -3 59 -7 59 -5 -1 -111 -12 -238 -25z"/>
</g>
</svg>
